<svg width="1441" height="948" viewBox="0 0 1441 948" fill="none" xmlns="http://www.w3.org/2000/svg">
<g clip-path="url(#clip0_720_13974)">
<g opacity="0.7">
<mask id="mask0_720_13974" style="mask-type:alpha" maskUnits="userSpaceOnUse" x="0" y="0" width="1441" height="948">
<path d="M1440.5 0H0.5V948H1440.5V0Z" fill="#D9D9D9"/>
</mask>
<g mask="url(#mask0_720_13974)">
<path fill-rule="evenodd" clip-rule="evenodd" d="M-28.5 1H69.5V99H-28.5V1ZM-29.5 0H-28.5H69.5H70.5H71.5H169.5H170.5H171.5H269.5H270.5H271.5H369.5H370.5H371.5H469.5H470.5H471.5H569.5H570.5H571.5H669.5H670.5H671.5H769.5H770.5H771.5H869.5H870.5H871.5H969.5H970.5H971.5H1069.5H1070.5H1071.5H1169.5H1170.5H1171.5H1269.5H1270.5H1271.5H1369.5H1370.5H1371.5H1469.5H1470.5V1V99V100V101V199V200V201V299V300V301V399V400V401V499V500V501V599V600V600.999V698.999V699.999V700.999V798.999V799.999V800.999V898.999V899.999V900.999V998.999V999.999H1469.5H1371.5H1370.5H1369.5H1271.5H1270.5H1269.5H1171.5H1170.5H1169.5H1071.5H1070.5H1069.5H971.5H970.5H969.5H871.5H870.5H869.5H771.5H770.5H769.5H671.5H670.5H669.5H571.5H570.5H569.5H471.5H470.5H469.5H371.5H370.5H369.5H271.5H270.5H269.5H171.5H170.5H169.5H71.5H70.5H69.5H-28.5H-29.5V998.999V900.999V899.999V898.999V800.999V799.999V798.999V700.999V699.999V698.999V600.999V600V599V501V500V499V401V400V399V301V300V299V201V200V199V101V100V99V1V0ZM71.5 1H169.5V99H71.5V1ZM269.5 1H171.5V99H269.5V1ZM271.5 1H369.5V99H271.5V1ZM469.5 1H371.5V99H469.5V1ZM471.5 1H569.5V99H471.5V1ZM669.5 1H571.5V99H669.5V1ZM671.5 1H769.5V99H671.5V1ZM869.5 1H771.5V99H869.5V1ZM871.5 1H969.5V99H871.5V1ZM1069.5 1H971.5V99H1069.5V1ZM1071.5 1H1169.5V99H1071.5V1ZM1269.5 1H1171.5V99H1269.5V1ZM1271.5 1H1369.5V99H1271.5V1ZM1469.5 1H1371.5V99H1469.5V1ZM-28.5 101H69.5V199H-28.5V101ZM169.5 101H71.5V199H169.5V101ZM171.5 101H269.5V199H171.5V101ZM369.5 101H271.5V199H369.5V101ZM371.5 101H469.5V199H371.5V101ZM471.5 101V199H569.5V101H471.5ZM571.5 199V101H669.5V199H571.5ZM671.5 101V199H769.5V101H671.5ZM771.5 199V101H869.5V199H771.5ZM871.5 101V199H969.5V101H871.5ZM971.5 199V101H1069.5V199H971.5ZM1071.5 101V199H1169.5V101H1071.5ZM1171.5 199V101H1269.5V199H1171.5ZM1271.5 101V199H1369.5V101H1271.5ZM1371.5 199V101H1469.5V199H1371.5ZM69.5 201H-28.5V299H69.5V201ZM71.5 201H169.5V299H71.5V201ZM269.5 201H171.5V299H269.5V201ZM271.5 201H369.5V299H271.5V201ZM469.5 201H371.5V299H469.5V201ZM471.5 299V201H569.5V299H471.5ZM571.5 201V299H669.5V201H571.5ZM671.5 299V201H769.5V299H671.5ZM771.5 201V299H869.5V201H771.5ZM871.5 299V201H969.5V299H871.5ZM971.5 201V299H1069.5V201H971.5ZM1071.5 299V201H1169.5V299H1071.5ZM1171.5 201V299H1269.5V201H1171.5ZM1271.5 299V201H1369.5V299H1271.5ZM1371.5 201V299H1469.5V201H1371.5ZM-28.5 301H69.5V399H-28.5V301ZM169.5 301H71.5V399H169.5V301ZM171.5 301H269.5V399H171.5V301ZM369.5 301H271.5V399H369.5V301ZM371.5 301H469.5V399H371.5V301ZM569.5 301H471.5V399H569.5V301ZM571.5 301H669.5V399H571.5V301ZM769.5 301H671.5V399H769.5V301ZM771.5 301H869.5V399H771.5V301ZM969.5 301H871.5V399H969.5V301ZM971.5 301H1069.5V399H971.5V301ZM1169.5 301H1071.5V399H1169.5V301ZM1171.5 301H1269.5V399H1171.5V301ZM1369.5 301H1271.5V399H1369.5V301ZM1371.5 301H1469.5V399H1371.5V301ZM69.5 401H-28.5V499H69.5V401ZM71.5 401H169.5V499H71.5V401ZM269.5 401H171.5V499H269.5V401ZM271.5 401H369.5V499H271.5V401ZM469.5 401H371.5V499H469.5V401ZM471.5 401H569.5V499H471.5V401ZM669.5 401H571.5V499H669.5V401ZM671.5 401H769.5V499H671.5V401ZM869.5 401H771.5V499H869.5V401ZM871.5 401H969.5V499H871.5V401ZM1069.5 401H971.5V499H1069.5V401ZM1071.5 401H1169.5V499H1071.5V401ZM1269.5 401H1171.5V499H1269.5V401ZM1271.5 401H1369.5V499H1271.5V401ZM1469.5 401H1371.5V499H1469.5V401ZM-28.5 501H69.5V599H-28.5V501ZM169.5 501H71.5V599H169.5V501ZM171.5 501H269.5V599H171.5V501ZM369.5 501H271.5V599H369.5V501ZM371.5 501H469.5V599H371.5V501ZM569.5 501H471.5V599H569.5V501ZM571.5 501H669.5V599H571.5V501ZM769.5 501H671.5V599H769.5V501ZM771.5 501H869.5V599H771.5V501ZM969.5 501H871.5V599H969.5V501ZM971.5 501H1069.5V599H971.5V501ZM1169.5 501H1071.5V599H1169.5V501ZM1171.5 501H1269.5V599H1171.5V501ZM1369.5 501H1271.5V599H1369.5V501ZM1371.5 501H1469.5V599H1371.5V501ZM-28.5 600.999V698.999H69.5V600.999H-28.5ZM71.5 698.999V600.999H169.5V698.999H71.5ZM171.5 600.999V698.999H269.5V600.999H171.5ZM271.5 698.999V600.999H369.5V698.999H271.5ZM371.5 600.999V698.999H469.5V600.999H371.5ZM471.5 698.999V600.999H569.5V698.999H471.5ZM571.5 600.999V698.999H669.5V600.999H571.5ZM671.5 698.999V600.999H769.5V698.999H671.5ZM771.5 600.999V698.999H869.5V600.999H771.5ZM871.5 698.999V600.999H969.5V698.999H871.5ZM971.5 600.999V698.999H1069.5V600.999H971.5ZM1071.5 698.999V600.999H1169.5V698.999H1071.5ZM1171.5 600.999V698.999H1269.5V600.999H1171.5ZM1271.5 698.999V600.999H1369.5V698.999H1271.5ZM1371.5 600.999V698.999H1469.5V600.999H1371.5ZM-28.5 700.999H69.5V798.999H-28.5V700.999ZM169.5 700.999H71.5V798.999H169.5V700.999ZM171.5 700.999H269.5V798.999H171.5V700.999ZM369.5 700.999H271.5V798.999H369.5V700.999ZM371.5 700.999H469.5V798.999H371.5V700.999ZM569.5 700.999H471.5V798.999H569.5V700.999ZM571.5 700.999H669.5V798.999H571.5V700.999ZM769.5 700.999H671.5V798.999H769.5V700.999ZM771.5 700.999H869.5V798.999H771.5V700.999ZM969.5 700.999H871.5V798.999H969.5V700.999ZM971.5 700.999H1069.5V798.999H971.5V700.999ZM1169.5 700.999H1071.5V798.999H1169.5V700.999ZM1171.5 700.999H1269.5V798.999H1171.5V700.999ZM1369.5 700.999H1271.5V798.999H1369.5V700.999ZM1371.5 700.999H1469.5V798.999H1371.5V700.999ZM69.5 800.999H-28.5V898.999H69.5V800.999ZM71.5 800.999H169.5V898.999H71.5V800.999ZM269.5 800.999H171.5V898.999H269.5V800.999ZM271.5 800.999H369.5V898.999H271.5V800.999ZM469.5 800.999H371.5V898.999H469.5V800.999ZM471.5 800.999H569.5V898.999H471.5V800.999ZM669.5 800.999H571.5V898.999H669.5V800.999ZM671.5 800.999H769.5V898.999H671.5V800.999ZM869.5 800.999H771.5V898.999H869.5V800.999ZM871.5 800.999H969.5V898.999H871.5V800.999ZM1069.5 800.999H971.5V898.999H1069.5V800.999ZM1071.5 800.999H1169.5V898.999H1071.5V800.999ZM1269.5 800.999H1171.5V898.999H1269.5V800.999ZM1271.5 800.999H1369.5V898.999H1271.5V800.999ZM1469.5 800.999H1371.5V898.999H1469.5V800.999ZM-28.5 900.999H69.5V998.999H-28.5V900.999ZM169.5 900.999H71.5V998.999H169.5V900.999ZM171.5 900.999H269.5V998.999H171.5V900.999ZM369.5 900.999H271.5V998.999H369.5V900.999ZM371.5 900.999H469.5V998.999H371.5V900.999ZM569.5 900.999H471.5V998.999H569.5V900.999ZM571.5 900.999H669.5V998.999H571.5V900.999ZM769.5 900.999H671.5V998.999H769.5V900.999ZM771.5 900.999H869.5V998.999H771.5V900.999ZM969.5 900.999H871.5V998.999H969.5V900.999ZM971.5 900.999H1069.5V998.999H971.5V900.999ZM1169.5 900.999H1071.5V998.999H1169.5V900.999ZM1171.5 900.999H1269.5V998.999H1171.5V900.999ZM1369.5 900.999H1271.5V998.999H1369.5V900.999ZM1371.5 900.999H1469.5V998.999H1371.5V900.999Z" fill="url(#paint0_linear_720_13974)"/>
</g>
</g>
</g>
<defs>
<linearGradient id="paint0_linear_720_13974" x1="720.5" y1="0" x2="720.5" y2="746.505" gradientUnits="userSpaceOnUse">
<stop stop-color="white"/>
<stop offset="1" stop-color="white" stop-opacity="0"/>
</linearGradient>
<clipPath id="clip0_720_13974">
<rect width="1440" height="948" fill="white" transform="translate(0.5)"/>
</clipPath>
</defs>
</svg>
