<svg width="92" height="48" viewBox="0 0 92 48" fill="none" xmlns="http://www.w3.org/2000/svg">
<path d="M24.5015 17.9862H25.0356M25.0356 17.9862V16.5596C25.0356 16.4062 25.0032 16.253 24.9245 16.1213C24.7093 15.7619 24.4554 15.5433 24.0834 15.3353C23.844 15.2015 23.5516 15.1895 23.3065 15.3125C22.9057 15.5138 22.6763 15.7389 22.4656 16.1266C22.3953 16.2559 22.365 16.4027 22.365 16.5499V17.9862C22.365 18.1171 22.4711 18.2233 22.6021 18.2233H24.7985C24.9294 18.2233 25.0356 18.1171 25.0356 17.9862ZM67.4985 17.9862H66.9644M66.9644 17.9862V16.5596C66.9644 16.4062 66.9968 16.253 67.0755 16.1213C67.2907 15.7619 67.5446 15.5433 67.9166 15.3353C68.156 15.2015 68.4484 15.1895 68.6935 15.3125C69.0943 15.5138 69.3237 15.7389 69.5344 16.1266C69.6047 16.2559 69.635 16.4027 69.635 16.5499V17.9862C69.635 18.1171 69.5289 18.2233 69.3979 18.2233H67.2015C67.0705 18.2233 66.9644 18.1171 66.9644 17.9862ZM38.1217 25.5738C36.596 24.848 35.9124 24.3466 35.184 23.2027C34.3369 21.933 34.1406 21.2627 34.1157 20.1202V17.3709C34.1157 17.307 34.1218 17.2431 34.1343 17.1804C34.3535 16.0817 34.5918 15.4642 35.184 14.4295C35.6778 13.6061 36.0188 13.0858 36.7863 12.0583C37.5443 11.2404 37.9966 10.8253 38.9228 10.1614C40.0184 9.50337 40.4634 9.20001 41.3264 8.73875C42.2846 8.17046 42.8156 7.85934 43.73 7.31607L45.5994 6.36762M53.5304 25.5738C53.6614 25.6421 53.7874 25.7112 53.9091 25.7816C54.6725 26.2231 54.2785 27.2336 53.3967 27.2336H37.8865C36.9582 27.2336 36.5864 26.1445 37.395 25.6885C38.0274 25.3318 38.7891 24.9512 39.79 24.4822C39.922 24.4203 40.0667 24.3882 40.2125 24.3882H50.4991C50.6146 24.3882 50.7294 24.4082 50.8379 24.4476C51.9652 24.8566 52.821 25.2037 53.5304 25.5738ZM53.5304 25.5738C54.6246 24.6536 55.1268 24.092 55.7478 22.9656L56.9884 20.3221C57.0507 20.1891 57.0831 20.0441 57.0831 19.8972V17.4129C57.0831 17.3213 57.0705 17.2301 57.0457 17.1419L56.3359 14.6212C56.3002 14.4946 56.24 14.3763 56.1586 14.2731L54.4856 12.1511C54.437 12.0895 54.3814 12.0338 54.3198 11.9852L52.0089 10.1614L49.6053 8.73875L47.4688 7.31607L46.0988 6.5237C45.7897 6.34497 45.5994 6.01504 45.5994 5.65804V5.41916M45.5994 5.41916L46.9882 5.00814C47.1289 4.96651 47.2586 4.89444 47.3683 4.79704L47.934 4.29485C48.1477 4.10508 48.27 3.8329 48.27 3.54706V3.26032C48.27 2.97448 48.1477 2.70231 47.934 2.51253L47.2907 1.94136C47.2316 1.88894 47.1666 1.8437 47.0969 1.80658L45.8665 1.15111L45.3323 0.914001M45.5994 5.41916L43.997 5.65627M44.7982 3.52225H45.8665M5.273 30.7903V29.182C5.273 28.6298 5.72071 28.182 6.273 28.182H8.54599C9.09828 28.182 9.54599 28.6298 9.54599 29.182V30.7903C9.54599 31.0522 9.33368 31.2645 9.07177 31.2645H5.74722C5.48531 31.2645 5.273 31.0522 5.273 30.7903ZM5.54006 26.7594V25.1552C5.54006 24.9641 5.59263 24.7752 5.70394 24.6198C6.00971 24.1928 6.30799 23.9263 6.7433 23.6628C6.9917 23.5125 7.29976 23.4965 7.56355 23.6178C8.1468 23.886 8.49089 24.1574 8.83578 24.6141C8.95536 24.7725 9.01187 24.9684 9.01187 25.1669V26.7594C9.01187 26.8903 8.90571 26.9965 8.77476 26.9965H5.77717C5.64622 26.9965 5.54006 26.8903 5.54006 26.7594ZM21.8309 32.4501V27.7594C21.8309 27.2071 22.2786 26.7594 22.8309 26.7594H24.8368C25.3891 26.7594 25.8368 27.2071 25.8368 27.7594V32.4501C25.8368 32.8429 25.5183 33.1614 25.1255 33.1614H22.5422C22.1493 33.1614 21.8309 32.8429 21.8309 32.4501ZM22.365 24.8625V20.4089C22.365 19.8566 22.8127 19.4089 23.365 19.4089H24.0356C24.5879 19.4089 25.0356 19.8566 25.0356 20.4089V24.8625C25.0356 25.2553 24.7171 25.5738 24.3243 25.5738H23.0763C22.6835 25.5738 22.365 25.2553 22.365 24.8625ZM86.727 30.7903V29.182C86.727 28.6298 86.2793 28.182 85.727 28.182H83.454C82.9017 28.182 82.454 28.6298 82.454 29.182V30.7903C82.454 31.0522 82.6663 31.2645 82.9282 31.2645H86.2528C86.5147 31.2645 86.727 31.0522 86.727 30.7903ZM86.4599 26.7594V25.1552C86.4599 24.9641 86.4074 24.7752 86.2961 24.6198C85.9903 24.1928 85.692 23.9263 85.2567 23.6628C85.0083 23.5125 84.7002 23.4965 84.4364 23.6178C83.8532 23.886 83.5091 24.1574 83.1642 24.6141C83.0446 24.7725 82.9881 24.9684 82.9881 25.1669V26.7594C82.9881 26.8903 83.0943 26.9965 83.2252 26.9965H86.2228C86.3538 26.9965 86.4599 26.8903 86.4599 26.7594ZM70.1691 32.4501V27.7594C70.1691 27.2071 69.7214 26.7594 69.1691 26.7594H67.1632C66.6109 26.7594 66.1632 27.2071 66.1632 27.7594V32.4501C66.1632 32.8429 66.4817 33.1614 66.8745 33.1614H69.4578C69.8507 33.1614 70.1691 32.8429 70.1691 32.4501ZM69.635 24.8625V20.4089C69.635 19.8566 69.1873 19.4089 68.635 19.4089H67.9644C67.4121 19.4089 66.9644 19.8566 66.9644 20.4089V24.8625C66.9644 25.2553 67.2829 25.5738 67.6757 25.5738H68.9237C69.3165 25.5738 69.635 25.2553 69.635 24.8625ZM87.2611 33.4501V37.8521C87.2611 38.4044 86.8134 38.8521 86.2611 38.8521H83.1869C82.6347 38.8521 82.1869 38.4044 82.1869 37.8521V33.4501C82.1869 32.8978 82.6347 32.4501 83.1869 32.4501H86.2611C86.8134 32.4501 87.2611 32.8978 87.2611 33.4501ZM63.6914 34.347H79.5846C80.1369 34.347 80.5846 34.7947 80.5846 35.347V37.8521C80.5846 38.4044 80.1369 38.8521 79.5846 38.8521H63.6914C63.1391 38.8521 62.6914 38.4044 62.6914 37.8521V35.347C62.6914 34.7947 63.1391 34.347 63.6914 34.347ZM75.7774 44.443V45.4398C75.7774 45.9921 75.3297 46.4398 74.7774 46.4398H73.5727C73.0204 46.4398 72.5727 45.9921 72.5727 45.4398V44.0116C72.5727 43.7446 72.4693 43.4847 72.2672 43.3102C71.7376 42.853 71.2444 42.6306 70.369 42.4485C70.2375 42.4212 70.1011 42.4231 69.9702 42.4535C69.0791 42.6601 68.5672 42.8771 68.0612 43.3145C67.8637 43.4852 67.7656 43.7405 67.7656 44.0016V45.914C67.7656 46.4663 67.3179 46.914 66.7656 46.914H63.6914C63.1391 46.914 62.6914 46.4663 62.6914 45.914V41.0377C62.6914 40.4854 63.1391 40.0377 63.6914 40.0377H90.1701C90.6284 40.0377 91 40.4093 91 40.8676C91 41.326 90.6284 41.6975 90.1701 41.6975H87.9941C87.4418 41.6975 86.9941 42.1452 86.9941 42.6975V45.4398C86.9941 45.9921 86.5463 46.4398 85.9941 46.4398H81.8516C81.2993 46.4398 80.8516 45.9921 80.8516 45.4398V44.4841C80.8516 44.2181 80.748 43.9603 80.5503 43.7825C79.8856 43.185 79.3158 42.9113 78.4284 42.7013C78.2667 42.663 78.097 42.6699 77.9385 42.7199C77.0715 42.9935 76.5566 43.2656 76.0318 43.794C75.8617 43.9653 75.7774 44.2016 75.7774 44.443ZM63.7596 32.1614V29.4192C63.7596 28.8669 63.3119 28.4192 62.7596 28.4192H28.1721C27.6198 28.4192 27.1721 28.8669 27.1721 29.4192V32.1614C27.1721 32.7137 27.6198 33.1614 28.1721 33.1614H62.7596C63.3119 33.1614 63.7596 32.7137 63.7596 32.1614ZM61.3561 35.347V45.914C61.3561 46.4663 60.9084 46.914 60.3561 46.914H53.276C52.7237 46.914 52.276 46.4663 52.276 45.914V43.1796C52.276 42.9861 52.2203 42.7959 52.1121 42.6355C50.7037 40.5467 49.3104 39.5186 45.9377 38.2649C45.7195 38.1838 45.4793 38.1833 45.2608 38.2637C41.9584 39.4791 40.5553 40.5117 39.0928 42.6322C38.9808 42.7947 38.9228 42.9884 38.9228 43.1857V45.914C38.9228 46.4663 38.4751 46.914 37.9228 46.914H31.6439C31.0916 46.914 30.6439 46.4663 30.6439 45.914V35.347C30.6439 34.7947 31.0916 34.347 31.6439 34.347H60.3561C60.9084 34.347 61.3561 34.7947 61.3561 35.347ZM8.81306 32.4501H5.73887C5.18659 32.4501 4.73887 32.8978 4.73887 33.4501V37.8521C4.73887 38.4044 5.18659 38.8521 5.73887 38.8521H8.81306C9.36534 38.8521 9.81306 38.4044 9.81306 37.8521V33.4501C9.81306 32.8978 9.36534 32.4501 8.81306 32.4501ZM28.3086 34.347H12.4154C11.8631 34.347 11.4154 34.7947 11.4154 35.347V37.8521C11.4154 38.4044 11.8631 38.8521 12.4154 38.8521H28.3086C28.8609 38.8521 29.3086 38.4044 29.3086 37.8521V35.347C29.3086 34.7947 28.8609 34.347 28.3086 34.347ZM4.00593 41.6975H1.8299C1.37156 41.6975 1 41.326 1 40.8676C1 40.4093 1.37156 40.0377 1.8299 40.0377H28.3086C28.8609 40.0377 29.3086 40.4854 29.3086 41.0377V45.914C29.3086 46.4663 28.8609 46.914 28.3086 46.914H25.2344C24.6821 46.914 24.2344 46.4663 24.2344 45.914V44.0016C24.2344 43.7405 24.1363 43.4852 23.9388 43.3145C23.4328 42.8771 22.9209 42.6601 22.0298 42.4535C21.8989 42.4231 21.7625 42.4212 21.6309 42.4485C20.7556 42.6306 20.2624 42.853 19.7328 43.3102C19.5307 43.4847 19.4273 43.7446 19.4273 44.0116V45.4398C19.4273 45.9921 18.9796 46.4398 18.4273 46.4398H17.2226C16.6703 46.4398 16.2226 45.9921 16.2226 45.4398V44.443C16.2226 44.2016 16.1383 43.9653 15.9682 43.794C15.4434 43.2656 14.9285 42.9935 14.0615 42.7199C13.903 42.6699 13.7333 42.663 13.5715 42.7013C12.6842 42.9113 12.1143 43.185 11.4497 43.7825C11.252 43.9603 11.1484 44.2181 11.1484 44.4841V45.4398C11.1484 45.9921 10.7007 46.4398 10.1484 46.4398H6.00593C5.45365 46.4398 5.00593 45.9921 5.00593 45.4398V42.6975C5.00593 42.1452 4.55822 41.6975 4.00593 41.6975Z" stroke="white" stroke-width="2"/>
</svg>
